<?xml version="1.0" encoding="UTF-8"?>
<svg id="Layer_2" data-name="Layer 2" xmlns="http://www.w3.org/2000/svg" viewBox="0 0 223.04 223.04">
  <g id="Layer_1-2" data-name="Layer 1">
    <g>
      <path d="M111.51,0C49.92,0,0,49.93,0,111.52s49.92,111.51,111.51,111.51,111.52-49.92,111.52-111.51S173.1,0,111.51,0ZM111.51,209.58c-54.15,0-98.06-43.91-98.06-98.06S57.36,13.47,111.51,13.47s98.06,43.9,98.06,98.06-43.9,98.06-98.06,98.06Z"/>
      <path d="M86.95,86.44c5.66-8.08,13.32-12.3,22.86-13.04,9.77-.76,18.76,1.19,25.77,8.65,5.17,5.51,7.48,12.34,8.17,19.7.25,2.68,1.1,4.16,3.67,5.43,24.48,12.19,25.15,41.59,10.18,58.21-7.43,8.24-16.48,13.74-27.32,16.12-12.61,2.77-25.23,2.67-37.68-.82-17.93-5.03-30.19-16.61-36.5-33.91-8.57-23.48-8.69-47.35.09-70.75,8.29-22.1,25.19-33.56,48.43-35.98,11.2-1.17,22.23-.24,32.87,3.6,17.23,6.22,28.15,18.65,34.31,35.59.54,1.48.96,3,1.43,4.51.08.26.12.53.21.98-3.78,1.02-7.5,2.02-11.42,3.08-.27-.77-.56-1.48-.79-2.21-6.34-20.14-20.75-31.68-41.78-33.48-10.07-.86-19.92,0-29.33,3.95-11.47,4.82-19.1,13.47-23.1,24.99-7.18,20.69-7.3,41.59.53,62.13,6.08,15.95,18.31,24.68,35.04,27.2,10.06,1.52,20.1,1.33,29.74-2.17,10.73-3.9,19.01-10.66,22.35-22.09,3.01-10.29-.75-20.47-9.42-26.24-.41-.27-.86-.48-1.53-.86-.27,1.38-.5,2.62-.75,3.84-1.62,8.02-4.8,15.16-11.41,20.37-10.17,8-27.7,7.92-37.82-.15-13.06-10.43-10.72-30.29,4.49-38.1,7.4-3.8,15.38-4.33,23.47-4.04,3.27.12,6.54.5,9.81.77.04-6-4.07-12.31-9.53-14.65-8.6-3.69-17.44-1.61-25.29,6.05-3.19-2.19-6.42-4.4-9.73-6.67ZM132.05,114.47c-6.94-1.47-13.72-1.88-20.49-.9-2.85.41-5.75,1.3-8.33,2.58-3.93,1.94-6.15,5.28-5.97,9.86.18,4.44,2.71,7.33,6.53,9.07,5.76,2.62,11.66,2.59,17.52.25,2.89-1.15,5.04-3.23,6.64-5.87,2.75-4.52,3.65-9.55,4.09-14.99Z"/>
    </g>
  </g>
</svg>